Coordinates
version=1
nRows=9
nColumns=24
inDegrees=yes

Units are S.I. units (second, meters, Newtons, ...)
Angles are in degrees.

endheader
time	pelvis_tilt	pelvis_list	pelvis_rotation	pelvis_tx	pelvis_ty	pelvis_tz	hip_flexion_r	hip_adduction_r	hip_rotation_r	knee_angle_r	ankle_angle_r	subtalar_angle_r	mtp_angle_r	hip_flexion_l	hip_adduction_l	hip_rotation_l	knee_angle_l	ankle_angle_l	subtalar_angle_l	mtp_angle_l	lumbar_extension	lumbar_bending	lumbar_rotation
      1.02466667	      3.02743479	      1.76776147	     -3.60583470	     -0.01327715	      0.89028666	      0.32534629	    -23.67402813	      1.09990982	     -1.28128121	     -5.34685250	     20.82693623	      9.95318718	      5.70407685	     21.30384490	      1.06246926	     -9.06575191	     -1.65766633	      5.56332469	     -4.20712945	      3.93561620	    -10.30506645	     -1.75518254	      8.98357596
      1.02883333	      2.97386936	      1.84410426	     -3.71508629	     -0.00749465	      0.88900100	      0.32518859	    -23.73318877	      0.91883665	     -1.26705727	     -5.93556186	     21.06850033	     10.21812674	      5.87759682	     21.56338930	      1.12621329	     -8.75421191	     -2.30906335	      5.50568279	     -4.12565978	      3.96836795	    -10.22822335	     -1.93027114	      9.11879855
      1.03300000	      2.98594872	      1.95229474	     -3.79518314	     -0.00165002	      0.88784289	      0.32498759	    -23.88231682	      0.71382395	     -1.28859523	     -6.49249817	     21.23665918	     10.39480957	      6.07091332	     21.75250750	      1.24155856	     -8.46120744	     -3.03256871	      5.37322804	     -4.08659797	      4.01701517	    -10.21930485	     -2.15039974	      9.19052164
      1.03716667	      2.99257898	      2.07030241	     -3.86688037	      0.00422463	      0.88672460	      0.32475688	    -24.01596868	      0.50009596	     -1.31234401	     -7.06750340	     21.34942662	     10.55677637	      6.29047408	     21.95381090	      1.37446821	     -8.18160040	     -3.83459801	      5.18379713	     -4.09575027	      4.08176836	    -10.20731444	     -2.37451915	      9.24193935
      1.04133333	      3.00610172	      2.20208441	     -3.92574887	      0.01013919	      0.88565795	      0.32449351	    -24.14352546	      0.27381946	     -1.36582206	     -7.67415130	     21.42967309	     10.73594037	      6.55329824	     22.14921908	      1.53151591	     -7.91075872	     -4.69676915	      4.94963349	     -4.14764776	      4.16787017	    -10.19815291	     -2.61471977	      9.27332868
      1.04550000	      3.02566481	      2.34507764	     -3.97387334	      0.01609530	      0.88464667	      0.32419082	    -24.26034297	      0.03452671	     -1.46133050	     -8.31953837	     21.48239559	     10.96706498	      6.94196037	     22.34080552	      1.70999208	     -7.66113728	     -5.61536982	      4.66176449	     -4.25757492	      4.30277039	    -10.18144327	     -2.86537228	      9.28306281
      1.04966667	      3.11056456	      2.49533786	     -4.01359907	      0.02209917	      0.88379553	      0.32391290	    -24.49679446	     -0.19741196	     -1.42349688	     -8.85984088	     21.36183692	     10.93218362	      7.00703544	     22.45971208	      1.90253506	     -7.46328862	     -6.57913979	      4.34580482	     -4.35361141	      4.32278256	    -10.27428578	     -3.11968232	      9.29469797
      1.05383333	      3.13403859	      2.66239667	     -4.03260115	      0.02813498	      0.88289215	      0.32353880	    -24.57608323	     -0.45795732	     -1.60856574	     -9.58630276	     21.26040533	     11.15405544	     11.80517725	     22.62422244	      2.13466190	     -7.16010079	     -7.52069214	      3.88753355	     -4.72659881	      6.06481442	    -10.24206984	     -3.40536990	      9.26640106
      1.05800000	      3.15905287	      2.82828642	     -4.03563027	      0.03421947	      0.88204768	      0.32316406	    -24.67512690	     -0.70124764	     -1.71028443	    -10.28639103	     21.11210765	     11.25954940	     11.85500211	     22.82796002	      2.35677000	     -6.99758486	     -8.59466649	      3.57141166	     -4.83630862	      6.08603303	    -10.21746930	     -3.69141425	      9.22121439
